<svg width="15" height="16" viewBox="0 0 15 16" fill="none" xmlns="http://www.w3.org/2000/svg">
<g clip-path="url(#clip0_41_30)">
<path d="M5.15625 5.65625C5.28057 5.65625 5.3998 5.70564 5.48771 5.79354C5.57561 5.88145 5.625 6.00068 5.625 6.125V11.75C5.625 11.8743 5.57561 11.9935 5.48771 12.0815C5.3998 12.1694 5.28057 12.2188 5.15625 12.2188C5.03193 12.2188 4.9127 12.1694 4.82479 12.0815C4.73689 11.9935 4.6875 11.8743 4.6875 11.75V6.125C4.6875 6.00068 4.73689 5.88145 4.82479 5.79354C4.9127 5.70564 5.03193 5.65625 5.15625 5.65625ZM7.5 5.65625C7.62432 5.65625 7.74355 5.70564 7.83146 5.79354C7.91936 5.88145 7.96875 6.00068 7.96875 6.125V11.75C7.96875 11.8743 7.91936 11.9935 7.83146 12.0815C7.74355 12.1694 7.62432 12.2188 7.5 12.2188C7.37568 12.2188 7.25645 12.1694 7.16854 12.0815C7.08064 11.9935 7.03125 11.8743 7.03125 11.75V6.125C7.03125 6.00068 7.08064 5.88145 7.16854 5.79354C7.25645 5.70564 7.37568 5.65625 7.5 5.65625ZM10.3125 6.125C10.3125 6.00068 10.2631 5.88145 10.1752 5.79354C10.0873 5.70564 9.96807 5.65625 9.84375 5.65625C9.71943 5.65625 9.6002 5.70564 9.51229 5.79354C9.42439 5.88145 9.375 6.00068 9.375 6.125V11.75C9.375 11.8743 9.42439 11.9935 9.51229 12.0815C9.6002 12.1694 9.71943 12.2188 9.84375 12.2188C9.96807 12.2188 10.0873 12.1694 10.1752 12.0815C10.2631 11.9935 10.3125 11.8743 10.3125 11.75V6.125Z" fill="#333333"/>
<path fill-rule="evenodd" clip-rule="evenodd" d="M13.5938 3.3125C13.5938 3.56114 13.495 3.7996 13.3192 3.97541C13.1433 4.15123 12.9049 4.25 12.6562 4.25H12.1875V12.6875C12.1875 13.1848 11.99 13.6617 11.6383 14.0133C11.2867 14.365 10.8098 14.5625 10.3125 14.5625H4.6875C4.19022 14.5625 3.71331 14.365 3.36167 14.0133C3.01004 13.6617 2.8125 13.1848 2.8125 12.6875V4.25H2.34375C2.09511 4.25 1.85665 4.15123 1.68084 3.97541C1.50502 3.7996 1.40625 3.56114 1.40625 3.3125V2.375C1.40625 2.12636 1.50502 1.8879 1.68084 1.71209C1.85665 1.53627 2.09511 1.4375 2.34375 1.4375H5.625C5.625 1.18886 5.72377 0.950403 5.89959 0.774587C6.0754 0.598772 6.31386 0.5 6.5625 0.5H8.4375C8.68614 0.5 8.9246 0.598772 9.10041 0.774587C9.27623 0.950403 9.375 1.18886 9.375 1.4375H12.6562C12.9049 1.4375 13.1433 1.53627 13.3192 1.71209C13.495 1.8879 13.5938 2.12636 13.5938 2.375V3.3125ZM3.86063 4.25L3.75 4.30531V12.6875C3.75 12.9361 3.84877 13.1746 4.02459 13.3504C4.2004 13.5262 4.43886 13.625 4.6875 13.625H10.3125C10.5611 13.625 10.7996 13.5262 10.9754 13.3504C11.1512 13.1746 11.25 12.9361 11.25 12.6875V4.30531L11.1394 4.25H3.86063ZM2.34375 3.3125V2.375H12.6562V3.3125H2.34375Z" fill="#333333"/>
</g>
<defs>
<clipPath id="clip0_41_30">
<rect width="15" height="15" fill="white" transform="translate(0 0.5)"/>
</clipPath>
</defs>
</svg>
